<svg xmlns="http://www.w3.org/2000/svg" viewBox="0 0 280 280" shape-rendering="crispEdges">
  <defs>
    <linearGradient id="goldText" x1="0" y1="0" x2="0" y2="1">
      <stop offset="0%" stop-color="#f8d848"/>
      <stop offset="40%" stop-color="#f0a818"/>
      <stop offset="100%" stop-color="#c87010"/>
    </linearGradient>
    <linearGradient id="goldDark" x1="0" y1="0" x2="0" y2="1">
      <stop offset="0%" stop-color="#f0a818"/>
      <stop offset="100%" stop-color="#a05808"/>
    </linearGradient>
    <linearGradient id="wood" x1="0" y1="0" x2="1" y2="0">
      <stop offset="0%" stop-color="#c88850"/>
      <stop offset="50%" stop-color="#e0a868"/>
      <stop offset="100%" stop-color="#a06838"/>
    </linearGradient>
    <linearGradient id="metal" x1="0" y1="0" x2="0" y2="1">
      <stop offset="0%" stop-color="#d8d8d8"/>
      <stop offset="50%" stop-color="#a0a0a0"/>
      <stop offset="100%" stop-color="#686868"/>
    </linearGradient>
    <pattern id="halftone" x="0" y="0" width="8" height="8" patternUnits="userSpaceOnUse">
      <rect width="8" height="8" fill="#0d3d3d"/>
      <rect width="2" height="2" fill="#0a3030"/>
      <rect x="4" y="4" width="2" height="2" fill="#0a3030"/>
    </pattern>
  </defs>

  <!-- BG teal + halftone -->
  <rect width="280" height="280" fill="url(#halftone)"/>
  <rect width="280" height="280" fill="none" stroke="#188080" stroke-width="4"/>

  <!-- Floating pixels -->
  <rect x="20" y="20" width="6" height="6" fill="#2aa0a0" opacity="0.6"/>
  <rect x="240" y="30" width="6" height="6" fill="#2aa0a0" opacity="0.4"/>
  <rect x="250" y="18" width="4" height="4" fill="#2aa0a0" opacity="0.5"/>
  <rect x="30" y="250" width="4" height="4" fill="#2aa0a0" opacity="0.3"/>
  <rect x="260" y="260" width="6" height="6" fill="#2aa0a0" opacity="0.5"/>
  <rect x="10" y="60" width="4" height="4" fill="#1a8080" opacity="0.4"/>
  <rect x="200" y="10" width="4" height="4" fill="#1a8080" opacity="0.3"/>

  <!-- === GOLD NUGGETS PILE (bottom-center) === -->

  <!-- Back layer nuggets -->
  <!-- Left nugget -->
  <rect x="56" y="156" width="8" height="8" fill="url(#goldDark)"/>
  <rect x="64" y="148" width="8" height="8" fill="url(#goldDark)"/>
  <rect x="72" y="152" width="8" height="8" fill="url(#goldDark)"/>
  <!-- Right nugget -->
  <rect x="196" y="152" width="8" height="8" fill="url(#goldDark)"/>
  <rect x="204" y="148" width="8" height="8" fill="url(#goldDark)"/>
  <rect x="212" y="156" width="8" height="8" fill="url(#goldDark)"/>
  <!-- Center back -->
  <rect x="128" y="144" width="8" height="8" fill="url(#goldDark)"/>
  <rect x="136" y="140" width="8" height="8" fill="url(#goldDark)"/>
  <rect x="144" y="144" width="8" height="8" fill="url(#goldDark)"/>

  <!-- Mid layer nuggets -->
  <rect x="48" y="164" width="8" height="8" fill="url(#goldText)"/>
  <rect x="56" y="164" width="8" height="8" fill="url(#goldDark)"/>
  <rect x="64" y="156" width="8" height="8" fill="url(#goldText)"/>
  <rect x="72" y="160" width="8" height="8" fill="url(#goldDark)"/>
  <rect x="80" y="156" width="8" height="8" fill="url(#goldText)"/>
  <rect x="88" y="164" width="8" height="8" fill="url(#goldDark)"/>

  <rect x="184" y="164" width="8" height="8" fill="url(#goldText)"/>
  <rect x="192" y="160" width="8" height="8" fill="url(#goldDark)"/>
  <rect x="200" y="156" width="8" height="8" fill="url(#goldText)"/>
  <rect x="208" y="164" width="8" height="8" fill="url(#goldDark)"/>
  <rect x="216" y="164" width="8" height="8" fill="url(#goldText)"/>

  <rect x="120" y="148" width="8" height="8" fill="url(#goldText)"/>
  <rect x="128" y="152" width="8" height="8" fill="url(#goldDark)"/>
  <rect x="136" y="148" width="8" height="8" fill="url(#goldText)"/>
  <rect x="144" y="152" width="8" height="8" fill="url(#goldDark)"/>
  <rect x="152" y="148" width="8" height="8" fill="url(#goldText)"/>

  <!-- Front layer nuggets (brightest) -->
  <rect x="96" y="164" width="8" height="8" fill="url(#goldText)"/>
  <rect x="104" y="160" width="8" height="8" fill="url(#goldDark)"/>
  <rect x="112" y="164" width="8" height="8" fill="url(#goldText)"/>
  <rect x="120" y="160" width="8" height="8" fill="url(#goldDark)"/>
  <rect x="128" y="164" width="8" height="8" fill="url(#goldText)"/>
  <rect x="136" y="160" width="8" height="8" fill="url(#goldDark)"/>
  <rect x="144" y="164" width="8" height="8" fill="url(#goldText)"/>
  <rect x="152" y="160" width="8" height="8" fill="url(#goldDark)"/>
  <rect x="160" y="164" width="8" height="8" fill="url(#goldText)"/>
  <rect x="168" y="160" width="8" height="8" fill="url(#goldDark)"/>
  <rect x="176" y="164" width="8" height="8" fill="url(#goldText)"/>

  <!-- Small accent nuggets -->
  <rect x="100" y="172" width="6" height="6" fill="url(#goldText)"/>
  <rect x="140" y="172" width="6" height="6" fill="url(#goldText)"/>
  <rect x="170" y="172" width="6" height="6" fill="url(#goldText)"/>

  <!-- Sparkles on gold -->
  <rect x="108" y="156" width="4" height="4" fill="#f8f8d0" opacity="0.8"/>
  <rect x="148" y="152" width="4" height="4" fill="#f8f8d0" opacity="0.7"/>
  <rect x="180" y="160" width="4" height="4" fill="#f8f8d0" opacity="0.6"/>
  <rect x="132" y="172" width="4" height="4" fill="#f8f8d0" opacity="0.5"/>

  <!-- === PICKAXE (diagonal, bottom-left to top-right) === -->

  <!-- Handle (wood, diagonal from x~40,y~200 to x~180,y~80) -->
  <rect x="48" y="204" width="6" height="6" fill="url(#wood)"/>
  <rect x="56" y="196" width="6" height="6" fill="url(#wood)"/>
  <rect x="64" y="188" width="6" height="6" fill="url(#wood)"/>
  <rect x="72" y="180" width="6" height="6" fill="url(#wood)"/>
  <rect x="80" y="172" width="6" height="6" fill="url(#wood)"/>
  <rect x="88" y="164" width="6" height="6" fill="url(#wood)"/>
  <rect x="96" y="156" width="6" height="6" fill="url(#wood)"/>
  <rect x="104" y="148" width="6" height="6" fill="url(#wood)"/>
  <rect x="112" y="140" width="6" height="6" fill="url(#wood)"/>
  <rect x="120" y="132" width="6" height="6" fill="url(#wood)"/>
  <rect x="128" y="124" width="6" height="6" fill="url(#wood)"/>
  <rect x="136" y="116" width="6" height="6" fill="url(#wood)"/>
  <rect x="144" y="108" width="6" height="6" fill="url(#wood)"/>
  <rect x="152" y="100" width="6" height="6" fill="url(#wood)"/>
  <rect x="160" y="92" width="6" height="6" fill="url(#wood)"/>
  <rect x="168" y="84" width="6" height="6" fill="url(#wood)"/>

  <!-- Pickaxe head (metal, at top-right end of handle) -->
  <!-- Cross bar -->
  <rect x="152" y="76" width="6" height="6" fill="url(#metal)"/>
  <rect x="160" y="76" width="6" height="6" fill="url(#metal)"/>
  <rect x="168" y="76" width="6" height="6" fill="url(#metal)"/>
  <rect x="176" y="76" width="6" height="6" fill="url(#metal)"/>
  <rect x="184" y="76" width="6" height="6" fill="url(#metal)"/>

  <!-- Left blade -->
  <rect x="140" y="76" width="6" height="6" fill="url(#metal)"/>
  <rect x="132" y="76" width="6" height="6" fill="url(#metal)"/>
  <rect x="128" y="68" width="6" height="6" fill="url(#metal)"/>
  <rect x="136" y="68" width="6" height="6" fill="url(#metal)"/>

  <!-- Right blade -->
  <rect x="192" y="76" width="6" height="6" fill="url(#metal)"/>
  <rect x="200" y="76" width="6" height="6" fill="url(#metal)"/>
  <rect x="192" y="68" width="6" height="6" fill="url(#metal)"/>
  <rect x="200" y="68" width="6" height="6" fill="url(#metal)"/>
  <rect x="196" y="60" width="6" height="6" fill="url(#metal)"/>

  <!-- Metal highlight -->
  <rect x="160" y="72" width="6" height="4" fill="#e8e8e8"/>
  <rect x="192" y="72" width="4" height="4" fill="#e8e8e8"/>

  <!-- === GOLDENROCK TEXT === -->
  <!-- G (x=32, y=24) — 6px block font, 10px tall -->
  <g fill="url(#goldText)">
    <!-- G -->
    <rect x="36" y="28" width="5" height="5"/><rect x="41" y="28" width="5" height="5"/><rect x="46" y="28" width="5" height="5"/><rect x="51" y="28" width="5" height="5"/>
    <rect x="36" y="33" width="5" height="5"/>
    <rect x="36" y="38" width="5" height="5"/>
    <rect x="36" y="43" width="5" height="5"/><rect x="41" y="43" width="5" height="5"/><rect x="46" y="43" width="5" height="5"/><rect x="51" y="43" width="5" height="5"/>
    <rect x="36" y="48" width="5" height="5"/><rect x="51" y="48" width="5" height="5"/>
    <rect x="36" y="53" width="5" height="5"/><rect x="41" y="53" width="5" height="5"/><rect x="46" y="53" width="5" height="5"/><rect x="51" y="53" width="5" height="5"/>
  </g>
  <g fill="url(#goldDark)">
    <rect x="36" y="28" width="5" height="5" opacity="0"/><!-- skip -->
    <!-- G shadow bottom -->
    <rect x="36" y="58" width="5" height="3"/><rect x="41" y="58" width="5" height="3"/><rect x="46" y="58" width="5" height="3"/><rect x="51" y="58" width="3" height="3"/>
  </g>

  <!-- O -->
  <g fill="url(#goldText)">
    <rect x="61" y="28" width="5" height="5"/><rect x="66" y="28" width="5" height="5"/><rect x="71" y="28" width="5" height="5"/><rect x="76" y="28" width="5" height="5"/>
    <rect x="61" y="33" width="5" height="5"/><rect x="76" y="33" width="5" height="5"/>
    <rect x="61" y="38" width="5" height="5"/><rect x="76" y="38" width="5" height="5"/>
    <rect x="61" y="43" width="5" height="5"/><rect x="76" y="43" width="5" height="5"/>
    <rect x="61" y="48" width="5" height="5"/><rect x="76" y="48" width="5" height="5"/>
    <rect x="61" y="53" width="5" height="5"/><rect x="66" y="53" width="5" height="5"/><rect x="71" y="53" width="5" height="5"/><rect x="76" y="53" width="5" height="5"/>
  </g>

  <!-- L -->
  <g fill="url(#goldText)">
    <rect x="86" y="28" width="5" height="5"/>
    <rect x="86" y="33" width="5" height="5"/>
    <rect x="86" y="38" width="5" height="5"/>
    <rect x="86" y="43" width="5" height="5"/>
    <rect x="86" y="48" width="5" height="5"/>
    <rect x="86" y="53" width="5" height="5"/><rect x="91" y="53" width="5" height="5"/><rect x="96" y="53" width="5" height="5"/><rect x="101" y="53" width="5" height="5"/>
  </g>

  <!-- D -->
  <g fill="url(#goldText)">
    <rect x="106" y="28" width="5" height="5"/><rect x="111" y="28" width="5" height="5"/><rect x="116" y="28" width="5" height="5"/>
    <rect x="106" y="33" width="5" height="5"/><rect x="121" y="33" width="5" height="5"/>
    <rect x="106" y="38" width="5" height="5"/><rect x="121" y="38" width="5" height="5"/>
    <rect x="106" y="43" width="5" height="5"/><rect x="121" y="43" width="5" height="5"/>
    <rect x="106" y="48" width="5" height="5"/><rect x="121" y="48" width="5" height="5"/>
    <rect x="106" y="53" width="5" height="5"/><rect x="111" y="53" width="5" height="5"/><rect x="116" y="53" width="5" height="5"/>
  </g>

  <!-- E -->
  <g fill="url(#goldText)">
    <rect x="131" y="28" width="5" height="5"/><rect x="136" y="28" width="5" height="5"/><rect x="141" y="28" width="5" height="5"/><rect x="146" y="28" width="5" height="5"/>
    <rect x="131" y="33" width="5" height="5"/>
    <rect x="131" y="38" width="5" height="5"/><rect x="136" y="38" width="5" height="5"/><rect x="141" y="38" width="5" height="5"/>
    <rect x="131" y="43" width="5" height="5"/>
    <rect x="131" y="48" width="5" height="5"/>
    <rect x="131" y="53" width="5" height="5"/><rect x="136" y="53" width="5" height="5"/><rect x="141" y="53" width="5" height="5"/><rect x="146" y="53" width="5" height="5"/>
  </g>

  <!-- N -->
  <g fill="url(#goldText)">
    <rect x="156" y="28" width="5" height="5"/><rect x="176" y="28" width="5" height="5"/>
    <rect x="156" y="33" width="5" height="5"/><rect x="161" y="33" width="5" height="5"/><rect x="176" y="33" width="5" height="5"/>
    <rect x="156" y="38" width="5" height="5"/><rect x="166" y="38" width="5" height="5"/><rect x="176" y="38" width="5" height="5"/>
    <rect x="156" y="43" width="5" height="5"/><rect x="171" y="43" width="5" height="5"/><rect x="176" y="43" width="5" height="5"/>
    <rect x="156" y="48" width="5" height="5"/><rect x="176" y="48" width="5" height="5"/>
    <rect x="156" y="53" width="5" height="5"/><rect x="176" y="53" width="5" height="5"/>
  </g>

  <!-- R (line 2) -->
  <g fill="url(#goldText)">
    <rect x="36" y="66" width="5" height="5"/><rect x="41" y="66" width="5" height="5"/><rect x="46" y="66" width="5" height="5"/>
    <rect x="36" y="71" width="5" height="5"/><rect x="51" y="71" width="5" height="5"/>
    <rect x="36" y="76" width="5" height="5"/><rect x="41" y="76" width="5" height="5"/><rect x="46" y="76" width="5" height="5"/>
    <rect x="36" y="81" width="5" height="5"/><rect x="46" y="81" width="5" height="5"/>
    <rect x="36" y="86" width="5" height="5"/><rect x="51" y="86" width="5" height="5"/>
  </g>

  <!-- O -->
  <g fill="url(#goldText)">
    <rect x="61" y="66" width="5" height="5"/><rect x="66" y="66" width="5" height="5"/><rect x="71" y="66" width="5" height="5"/><rect x="76" y="66" width="5" height="5"/>
    <rect x="61" y="71" width="5" height="5"/><rect x="76" y="71" width="5" height="5"/>
    <rect x="61" y="76" width="5" height="5"/><rect x="76" y="76" width="5" height="5"/>
    <rect x="61" y="81" width="5" height="5"/><rect x="76" y="81" width="5" height="5"/>
    <rect x="61" y="86" width="5" height="5"/><rect x="66" y="86" width="5" height="5"/><rect x="71" y="86" width="5" height="5"/><rect x="76" y="86" width="5" height="5"/>
  </g>

  <!-- C -->
  <g fill="url(#goldText)">
    <rect x="86" y="66" width="5" height="5"/><rect x="91" y="66" width="5" height="5"/><rect x="96" y="66" width="5" height="5"/>
    <rect x="86" y="71" width="5" height="5"/>
    <rect x="86" y="76" width="5" height="5"/>
    <rect x="86" y="81" width="5" height="5"/>
    <rect x="86" y="86" width="5" height="5"/><rect x="91" y="86" width="5" height="5"/><rect x="96" y="86" width="5" height="5"/>
  </g>

  <!-- K -->
  <g fill="url(#goldText)">
    <rect x="106" y="66" width="5" height="5"/><rect x="121" y="66" width="5" height="5"/>
    <rect x="106" y="71" width="5" height="5"/><rect x="116" y="71" width="5" height="5"/>
    <rect x="106" y="76" width="5" height="5"/><rect x="111" y="76" width="5" height="5"/>
    <rect x="106" y="81" width="5" height="5"/><rect x="116" y="81" width="5" height="5"/>
    <rect x="106" y="86" width="5" height="5"/><rect x="121" y="86" width="5" height="5"/>
  </g>

  <!-- Dark blue outline on text -->
  <g fill="none" stroke="#002040" stroke-width="2">
    <!-- This is the outline effect - hard to do per-pixel in SVG without individual rects -->
    <!-- Instead use text-shadow equivalent via duplicated shifted shapes -->
  </g>

  <!-- === SUBTITLE === -->
  <g fill="#2aa0a0" opacity="0.8">
    <!-- SQUARE pixels -->
    <rect x="80" y="104" width="3" height="3"/><rect x="84" y="104" width="3" height="3"/><rect x="88" y="104" width="3" height="3"/><rect x="92" y="104" width="3" height="3"/><rect x="96" y="104" width="3" height="3"/><rect x="100" y="104" width="3" height="3"/>
    <rect x="80" y="107" width="3" height="3"/><rect x="100" y="107" width="3" height="3"/>
    <rect x="80" y="110" width="3" height="3"/><rect x="84" y="110" width="3" height="3"/><rect x="88" y="110" width="3" height="3"/>
    <rect x="80" y="113" width="3" height="3"/><rect x="92" y="113" width="3" height="3"/>
    <rect x="80" y="116" width="3" height="3"/><rect x="84" y="116" width="3" height="3"/><rect x="88" y="116" width="3" height="3"/><rect x="92" y="116" width="3" height="3"/><rect x="96" y="116" width="3" height="3"/><rect x="100" y="116" width="3" height="3"/>

    <!-- Pixels -->
    <rect x="110" y="104" width="3" height="3"/><rect x="114" y="104" width="3" height="3"/><rect x="118" y="104" width="3" height="3"/>
    <rect x="110" y="107" width="3" height="3"/><rect x="122" y="107" width="3" height="3"/>
    <rect x="110" y="110" width="3" height="3"/><rect x="114" y="110" width="3" height="3"/><rect x="118" y="110" width="3" height="3"/>
    <rect x="110" y="113" width="3" height="3"/>
    <rect x="110" y="116" width="3" height="3"/>

    <!-- I -->
    <rect x="132" y="104" width="3" height="3"/><rect x="136" y="104" width="3" height="3"/><rect x="140" y="104" width="3" height="3"/>
    <rect x="136" y="107" width="3" height="3"/>
    <rect x="136" y="110" width="3" height="3"/>
    <rect x="136" y="113" width="3" height="3"/>
    <rect x="132" y="116" width="3" height="3"/><rect x="136" y="116" width="3" height="3"/><rect x="140" y="116" width="3" height="3"/>

    <!-- X -->
    <rect x="150" y="104" width="3" height="3"/><rect x="162" y="104" width="3" height="3"/>
    <rect x="154" y="107" width="3" height="3"/><rect x="158" y="107" width="3" height="3"/>
    <rect x="158" y="110" width="3" height="3"/>
    <rect x="154" y="113" width="3" height="3"/><rect x="158" y="113" width="3" height="3"/>
    <rect x="150" y="116" width="3" height="3"/><rect x="162" y="116" width="3" height="3"/>

    <!-- E -->
    <rect x="172" y="104" width="3" height="3"/><rect x="176" y="104" width="3" height="3"/><rect x="180" y="104" width="3" height="3"/><rect x="184" y="104" width="3" height="3"/>
    <rect x="172" y="107" width="3" height="3"/>
    <rect x="172" y="110" width="3" height="3"/><rect x="176" y="110" width="3" height="3"/><rect x="180" y="110" width="3" height="3"/>
    <rect x="172" y="113" width="3" height="3"/>
    <rect x="172" y="116" width="3" height="3"/><rect x="176" y="116" width="3" height="3"/><rect x="180" y="116" width="3" height="3"/><rect x="184" y="116" width="3" height="3"/>

    <!-- L -->
    <rect x="194" y="104" width="3" height="3"/>
    <rect x="194" y="107" width="3" height="3"/>
    <rect x="194" y="110" width="3" height="3"/>
    <rect x="194" y="113" width="3" height="3"/>
    <rect x="194" y="116" width="3" height="3"/><rect x="198" y="116" width="3" height="3"/><rect x="202" y="116" width="3" height="3"/>
  </g>

  <!-- Inner border frame -->
  <rect x="8" y="8" width="264" height="264" fill="none" stroke="#188080" stroke-width="2" opacity="0.5"/>
</svg>
